<svg width="30" height="30" viewBox="0 0 30 30" fill="none" xmlns="http://www.w3.org/2000/svg">
<g clip-path="url(#clip0_793_1053)">
<path d="M22.0557 10.0183C19.1851 8.2242 16.3334 7.72416 14.9375 7.58494V2.76174C14.9375 2.4325 14.7536 2.13086 14.4608 1.98022C14.1681 1.82957 13.8156 1.85518 13.5478 2.04654L0.368027 11.4606C0.137051 11.6256 0 11.8919 0 12.1758C0 12.4596 0.137051 12.726 0.368027 12.891L13.5477 22.305C13.8156 22.4963 14.1679 22.522 14.4608 22.3714C14.7535 22.2207 14.9375 21.9191 14.9375 21.5898V16.8383C17.4221 16.9415 19.6342 17.4869 21.5234 18.4638C26.9333 21.2608 28.1513 26.7824 28.2541 27.3827C28.3253 27.8095 28.6948 28.1172 29.1203 28.1172C29.1446 28.1172 29.169 28.1161 29.1936 28.1141C29.6493 28.0764 30 27.6955 30 27.2382C30 20.2568 27.9291 13.6894 22.0557 10.0183ZM22.3788 16.9273C20.0071 15.6899 17.2078 15.0625 14.0586 15.0625C13.5732 15.0625 13.1797 15.456 13.1797 15.9414V19.882L2.39104 12.1758L13.1797 4.46963V8.41018C13.1797 8.64332 13.2723 8.86686 13.4371 9.03162C13.602 9.19645 13.8255 9.28908 14.0586 9.28908C14.0937 9.28908 17.6128 9.31451 21.124 11.509C23.4268 12.9483 26.5295 15.8052 27.7334 21.7674C25.8965 19.0066 23.6927 17.6128 22.3788 16.9273Z" fill="black"/>
</g>
<defs>
<clipPath id="clip0_793_1053">
<rect width="30" height="30" fill="white"/>
</clipPath>
</defs>
</svg>
