<svg width="40" height="40" viewBox="0 0 40 40" fill="none" xmlns="http://www.w3.org/2000/svg">
<circle cx="20" cy="20" r="19.5" fill="white" fill-opacity="0.81" stroke="white"/>
<path d="M29 23.344L26.879 25.465L23.707 22.293L22.293 23.707L25.465 26.879L23.344 29H29V23.344ZM11 16.656L13.121 14.535L16.293 17.707L17.707 16.293L14.535 13.121L16.656 11H11V16.656ZM29 11H23.344L25.465 13.121L22.293 16.293L23.707 17.707L26.879 14.535L29 16.656V11ZM11 29H16.656L14.535 26.879L17.707 23.707L16.293 22.293L13.121 25.465L11 23.344V29Z" fill="#2C2C2C"/>
</svg>
