<svg width="58" height="58" viewBox="0 0 58 58" fill="none" xmlns="http://www.w3.org/2000/svg">
<g filter="url(#filter0_d_739_1095)">
<rect x="4" y="2" width="50" height="50" rx="25" fill="#FF7F11"/>
<g filter="url(#filter1_d_739_1095)">
<path d="M40.2901 24.928C39.7599 21.0964 36.5784 18.25 32.8273 18.25H25.1728C21.4216 18.25 18.241 21.0964 17.7099 24.928C17.6495 25.3646 16.75 31.704 16.75 32.145C16.75 34.1356 18.3145 35.75 20.2439 35.75C21.5678 35.75 22.777 34.9783 23.3694 33.7568L25.5 29.625H32.5L34.6306 33.7568C35.2221 34.9783 36.4322 35.75 37.7561 35.75C39.6855 35.75 41.25 34.1356 41.25 32.145C41.25 31.704 40.3505 25.3646 40.2901 24.928ZM34.25 20.875C34.894 20.875 35.4164 21.3974 35.4164 22.0414C35.4164 22.6854 34.894 23.2078 34.25 23.2078C33.606 23.2078 33.0836 22.6854 33.0836 22.0414C33.0836 21.3974 33.606 20.875 34.25 20.875ZM26.375 25.25H24.625V27H22.875V25.25H21.125V23.5H22.875V21.75H24.625V23.5H26.375V25.25ZM31.9164 25.5414C31.2724 25.5414 30.75 25.019 30.75 24.375C30.75 23.731 31.2724 23.2086 31.9164 23.2086C32.5604 23.2086 33.0828 23.731 33.0828 24.375C33.0836 25.019 32.5613 25.5414 31.9164 25.5414ZM34.25 27.875C33.606 27.875 33.0836 27.3526 33.0836 26.7086C33.0836 26.0646 33.606 25.5422 34.25 25.5422C34.894 25.5422 35.4164 26.0646 35.4164 26.7086C35.4164 27.3526 34.894 27.875 34.25 27.875ZM36.5836 25.5414C35.9396 25.5414 35.4172 25.019 35.4172 24.375C35.4172 23.731 35.9396 23.2086 36.5836 23.2086C37.2276 23.2086 37.75 23.731 37.75 24.375C37.75 25.019 37.2276 25.5414 36.5836 25.5414Z" fill="white"/>
</g>
</g>
<defs>
<filter id="filter0_d_739_1095" x="0" y="0" width="58" height="58" filterUnits="userSpaceOnUse" color-interpolation-filters="sRGB">
<feFlood flood-opacity="0" result="BackgroundImageFix"/>
<feColorMatrix in="SourceAlpha" type="matrix" values="0 0 0 0 0 0 0 0 0 0 0 0 0 0 0 0 0 0 127 0" result="hardAlpha"/>
<feOffset dy="2"/>
<feGaussianBlur stdDeviation="2"/>
<feComposite in2="hardAlpha" operator="out"/>
<feColorMatrix type="matrix" values="0 0 0 0 0 0 0 0 0 0 0 0 0 0 0 0 0 0 0.2 0"/>
<feBlend mode="normal" in2="BackgroundImageFix" result="effect1_dropShadow_739_1095"/>
<feBlend mode="normal" in="SourceGraphic" in2="effect1_dropShadow_739_1095" result="shape"/>
</filter>
<filter id="filter1_d_739_1095" x="15.75" y="18.25" width="26.5" height="19.5" filterUnits="userSpaceOnUse" color-interpolation-filters="sRGB">
<feFlood flood-opacity="0" result="BackgroundImageFix"/>
<feColorMatrix in="SourceAlpha" type="matrix" values="0 0 0 0 0 0 0 0 0 0 0 0 0 0 0 0 0 0 127 0" result="hardAlpha"/>
<feOffset dy="1"/>
<feGaussianBlur stdDeviation="0.5"/>
<feComposite in2="hardAlpha" operator="out"/>
<feColorMatrix type="matrix" values="0 0 0 0 0 0 0 0 0 0 0 0 0 0 0 0 0 0 0.8 0"/>
<feBlend mode="normal" in2="BackgroundImageFix" result="effect1_dropShadow_739_1095"/>
<feBlend mode="normal" in="SourceGraphic" in2="effect1_dropShadow_739_1095" result="shape"/>
</filter>
</defs>
</svg>
