<svg width="28" height="28" viewBox="0 0 28 28" fill="none" xmlns="http://www.w3.org/2000/svg">
<path d="M25.375 11.9875C24.7625 8.1375 21.4375 5.25 17.5875 5.25H10.5C6.5625 5.25 3.2375 8.1375 2.625 11.9875C2.0125 16.1 1.75 17.9375 1.75 18.6375C1.75 22.925 7.6125 24.325 9.5375 20.475L11.025 17.5H16.975L18.4625 20.475C20.3875 24.325 26.25 22.925 26.25 18.6375C26.25 18.025 26.25 18.8125 25.375 11.9875ZM24.5 18.6375C24.5 21.0875 21.0875 21.9625 20.0375 19.6875L18.2875 16.1875C18.1125 15.925 17.85 15.75 17.5 15.75H10.5C10.15 15.75 9.8875 15.925 9.7125 16.275L7.9625 19.775C6.9125 21.9625 3.5 21.0875 3.5 18.6375L4.375 12.25C4.8125 9.275 7.4375 7 10.4125 7H17.5C20.5625 7 23.1 9.275 23.5375 12.25C23.625 12.3375 24.5875 19.075 24.5 18.6375Z" fill="#333333"/>
<path d="M12.25 11.375C12.25 11.9 11.9 12.25 11.375 12.25H10.5V13.125C10.5 13.65 10.15 14 9.625 14C9.1 14 8.75 13.65 8.75 13.125V12.25H7.875C7.35 12.25 7 11.9 7 11.375C7 10.85 7.35 10.5 7.875 10.5H8.75V9.625C8.75 9.1 9.1 8.75 9.625 8.75C10.15 8.75 10.5 9.1 10.5 9.625V10.5H11.375C11.9 10.5 12.25 10.85 12.25 11.375Z" fill="#333333"/>
<path d="M17.5 11.375C17.5 11.9 17.15 12.25 16.625 12.25C16.1 12.25 15.75 11.9 15.75 11.375C15.75 10.85 16.1 10.5 16.625 10.5C17.15 10.5 17.5 10.85 17.5 11.375Z" fill="#333333"/>
<path d="M19.25 13.125C19.25 13.65 18.9 14 18.375 14C17.85 14 17.5 13.65 17.5 13.125C17.5 12.6 17.85 12.25 18.375 12.25C18.9 12.25 19.25 12.6 19.25 13.125Z" fill="#333333"/>
<path d="M21 11.375C21 11.9 20.65 12.25 20.125 12.25C19.6 12.25 19.25 11.9 19.25 11.375C19.25 10.85 19.6 10.5 20.125 10.5C20.65 10.5 21 10.85 21 11.375Z" fill="#333333"/>
<path d="M17.5 9.625C17.5 9.1 17.85 8.75 18.375 8.75C18.9 8.75 19.25 9.1 19.25 9.625C19.25 10.15 18.9 10.5 18.375 10.5C17.85 10.5 17.5 10.15 17.5 9.625Z" fill="#333333"/>
</svg>
