<svg width="28" height="28" viewBox="0 0 28 28" fill="none" xmlns="http://www.w3.org/2000/svg">
<g clip-path="url(#clip0_739_1105)">
<path d="M22.0527 25.0693H6.11523C4.9263 25.0693 3.95898 24.102 3.95898 22.913V11.5684C3.95898 11.1542 4.29475 10.8184 4.70898 10.8184C5.12322 10.8184 5.45898 11.1542 5.45898 11.5684V22.913C5.45898 23.2749 5.75336 23.5693 6.11523 23.5693H22.0527C22.4146 23.5693 22.709 23.2749 22.709 22.913V11.5684C22.709 11.1542 23.0448 10.8184 23.459 10.8184C23.8732 10.8184 24.209 11.1542 24.209 11.5684V22.913C24.209 24.102 23.2417 25.0693 22.0527 25.0693Z" fill="#333333"/>
<path d="M25.334 14.1925C25.142 14.1925 24.9501 14.1193 24.8037 13.9728L15.4761 4.64533C14.7085 3.8777 13.4595 3.8777 12.6919 4.64533L3.36432 13.9729C3.07144 14.2658 2.59655 14.2658 2.30368 13.9729C2.01075 13.68 2.01075 13.2051 2.30368 12.9123L11.6312 3.58464C12.9837 2.2322 15.1843 2.2322 16.5367 3.58464L25.8643 12.9122C26.1572 13.2051 26.1572 13.68 25.8643 13.9728C25.7179 14.1193 25.5259 14.1925 25.334 14.1925Z" fill="#333333"/>
<path d="M17.084 25.0684H11.084C10.6698 25.0684 10.334 24.7325 10.334 24.3184V17.6621C10.334 16.3698 11.3854 15.3184 12.6777 15.3184H15.4902C16.7826 15.3184 17.834 16.3698 17.834 17.6621V24.3184C17.834 24.7325 17.4982 25.0684 17.084 25.0684ZM11.834 23.5684H16.334V17.6621C16.334 17.1969 15.9555 16.8184 15.4902 16.8184H12.6777C12.2125 16.8184 11.834 17.1969 11.834 17.6621V23.5684Z" fill="#333333"/>
</g>
<defs>
<clipPath id="clip0_739_1105">
<rect width="24" height="24" fill="white" transform="translate(2.08398 1.57031)"/>
</clipPath>
</defs>
</svg>
