<svg width="72" height="79" viewBox="0 0 72 79" fill="none" xmlns="http://www.w3.org/2000/svg">
<g filter="url(#filter0_d_712_2234)">
<circle cx="36" cy="36" r="36" fill="url(#paint0_linear_712_2234)" shape-rendering="crispEdges"/>
</g>
<g filter="url(#filter1_ddd_712_2234)">
<path d="M45.3333 57.8438H36.3273V62.205H45.3333V57.8438Z" fill="#F7AC1E"/>
<path d="M45.3333 51.3047H36.3273V55.6659H45.3333V51.3047Z" fill="#F7AC1E"/>
<path d="M45.3333 57.8438H36.3273V62.205H45.3333V57.8438Z" stroke="#6E6E6E" stroke-width="1.09532" stroke-miterlimit="10" stroke-linecap="round" stroke-linejoin="round"/>
<path d="M45.3333 51.3047H36.3273V55.6659H45.3333V51.3047Z" stroke="#6E6E6E" stroke-width="1.09532" stroke-miterlimit="10" stroke-linecap="round" stroke-linejoin="round"/>
<path d="M39.0049 26.1992H34.015V65.0015H39.0049V26.1992Z" fill="#F7AC1E"/>
<path d="M35.7796 26.1992H34.015V65.0015H35.7796V26.1992Z" fill="#F7851E"/>
<path d="M39.0049 26.1992H34.015V65.0015H39.0049V26.1992Z" stroke="#6E6E6E" stroke-width="1.09532" stroke-miterlimit="10" stroke-linecap="round" stroke-linejoin="round"/>
<path d="M40.2217 35.2956V32.8008H32.798V35.2956H40.2217Z" fill="#F7AC1E"/>
<path d="M36.5099 35.2956V32.8008H32.7979V35.2956H36.5099Z" fill="#F7851E"/>
<path d="M40.2217 35.2956V32.8008H32.798V35.2956H40.2217Z" stroke="#6E6E6E" stroke-width="1.09532" stroke-miterlimit="10" stroke-linecap="round" stroke-linejoin="round"/>
<path d="M40.2219 41.6862V39.1914H32.7982V41.6862H40.2219Z" fill="#F7AC1E"/>
<path d="M36.5098 41.6862V39.1914H32.7977V41.6862H36.5098Z" fill="#F7851E"/>
<path d="M40.2219 41.6862V39.1914H32.7982V41.6862H40.2219Z" stroke="#6E6E6E" stroke-width="1.09532" stroke-miterlimit="10" stroke-linecap="round" stroke-linejoin="round"/>
<path d="M43.2255 5C41.63 5 40.1659 5.55496 39.0085 6.48234C37.7343 7.5083 36.0147 7.54846 34.5688 6.8365C34.3534 6.73427 34.149 6.61378 33.9482 6.47504C33.835 6.39837 33.6926 6.30709 33.5246 6.21216C33.4224 6.1574 33.3129 6.09898 33.1961 6.03691C33.1157 5.99675 33.0354 5.95659 32.9478 5.91643C32.8638 5.87626 32.7725 5.8361 32.6813 5.79593C32.59 5.75577 32.495 5.71562 32.4001 5.67545C32.3527 5.6572 32.3015 5.63529 32.2541 5.61703C32.1555 5.58052 32.0533 5.54036 31.9474 5.50385C31.0164 5.1716 29.932 4.93428 28.9608 5.04381C25.8757 5.39066 23.3857 7.88801 23.0425 10.9732C22.5934 15.0405 25.7661 18.4835 29.7421 18.4835H29.7641C30.4504 18.4798 30.9105 19.1954 30.5782 19.7942C29.9576 20.9187 29.6472 22.2368 29.7677 23.6388C29.9904 26.2055 31.6918 28.3925 34.0139 29.3126C34.5506 29.528 35.1275 29.6741 35.7226 29.7398C35.7408 29.7434 35.7627 29.7434 35.781 29.7434C36.9274 29.8639 38.0264 29.6923 39.0049 29.2943C41.4803 28.2976 43.2255 25.8733 43.2255 23.04C43.2255 21.868 42.9261 20.7654 42.3967 19.8052C42.0645 19.2064 42.5026 18.4798 43.1854 18.4835C43.5139 18.4871 43.8462 18.4616 44.1857 18.4141C47.2526 17.9723 49.6769 15.4275 49.9435 12.3387C50.283 8.3444 47.1468 5 43.2255 5ZM45.1715 12.6198C45.0656 13.8283 44.0726 14.8725 42.8568 15.0478C42.729 15.066 42.6012 15.077 42.477 15.077H42.4369C40.9984 15.077 39.6511 15.8437 38.9209 17.0814C38.1907 18.3155 38.1651 19.8636 38.8588 21.1232C39.0779 21.5212 39.1911 21.9557 39.1911 22.412C39.1911 23.9017 37.9753 25.1175 36.4857 25.1175C36.3798 25.1175 36.2739 25.1102 36.1644 25.0992C34.9193 24.9641 33.897 23.9126 33.7912 22.6603C33.7437 22.109 33.8496 21.5905 34.1125 21.1159C34.8135 19.849 34.7952 18.3447 34.0577 17.0961C33.3238 15.851 31.9656 15.077 30.5162 15.077H30.4614C29.6947 15.0697 28.99 14.7484 28.4752 14.1752C27.9568 13.5947 27.7195 12.8389 27.8071 12.0502C27.9385 10.8381 28.9535 9.81943 30.1657 9.68434C30.2752 9.67339 30.3847 9.66609 30.4943 9.66609C31.2792 9.66609 31.8415 9.98738 32.1774 10.2539C33.3932 11.2251 34.9267 11.7618 36.4893 11.7618C38.052 11.7618 39.5781 11.2288 40.7866 10.2576C41.1225 9.98738 41.6884 9.66609 42.477 9.66609C43.2438 9.66609 43.9521 9.97643 44.4705 10.5423C44.989 11.1083 45.2372 11.8458 45.1715 12.6198Z" fill="#F7AC1E"/>
<path d="M43.2255 5C41.63 5 40.1659 5.55496 39.0085 6.48234C37.7343 7.5083 36.0147 7.54846 34.5688 6.8365C34.3534 6.73062 34.149 6.61013 33.9482 6.47139C33.835 6.39472 33.6926 6.30709 33.5246 6.21216C33.4224 6.15375 33.3129 6.09532 33.1961 6.03691C33.1157 5.99675 33.0354 5.95659 32.9478 5.91643C32.8638 5.87626 32.7725 5.8361 32.6813 5.79593C32.59 5.75577 32.495 5.71562 32.4001 5.67545C32.3527 5.6572 32.3015 5.63529 32.2541 5.61703C32.1555 5.57687 32.0533 5.54036 31.9474 5.50385C31.0164 5.1716 29.932 4.93428 28.9608 5.04381C25.8757 5.39066 23.3857 7.888 23.0425 10.9732C22.5934 15.0405 25.7661 18.4835 29.7421 18.4835H29.7641C30.4504 18.4798 30.9105 19.1954 30.5782 19.7942C29.9576 20.9187 29.6472 22.2368 29.7677 23.6388C29.9904 26.2055 31.6918 28.3925 34.0139 29.3126C34.5506 29.528 35.1275 29.6741 35.7226 29.7398C35.7408 29.7434 35.7627 29.7434 35.781 29.7434C36.9274 29.8639 38.0264 29.6923 39.0049 29.2943C41.4803 28.2976 43.2255 25.8733 43.2255 23.04C43.2255 21.868 42.9261 20.7654 42.3967 19.8052C42.0645 19.2064 42.5026 18.4798 43.1853 18.4835C43.5139 18.4871 43.8462 18.4616 44.1857 18.4141C47.2526 17.9723 49.6769 15.4275 49.9435 12.3387C50.283 8.3444 47.1468 5 43.2255 5ZM45.1715 12.6198C45.0656 13.8283 44.0726 14.8725 42.8568 15.0478C42.729 15.066 42.6012 15.077 42.477 15.077H42.4369C40.9984 15.077 39.6511 15.8437 38.9209 17.0814C38.1907 18.3155 38.1651 19.8636 38.8588 21.1232C39.0779 21.5212 39.1911 21.9557 39.1911 22.412C39.1911 23.9017 37.9753 25.1175 36.4857 25.1175C36.3798 25.1175 36.2739 25.1102 36.1644 25.0992C34.9193 24.9641 33.897 23.9126 33.7912 22.6603C33.7437 22.109 33.8496 21.5905 34.1125 21.1159C34.8135 19.849 34.7952 18.3447 34.0577 17.0961C33.3238 15.851 31.9657 15.077 30.5162 15.077H30.4614C29.6947 15.0697 28.99 14.7484 28.4752 14.1752C27.9568 13.5947 27.7195 12.8389 27.8071 12.0502C27.9385 10.8381 28.9535 9.81943 30.1657 9.68434C30.2752 9.67339 30.3847 9.66609 30.4943 9.66609C31.2792 9.66609 31.8415 9.98738 32.1774 10.2539C33.3932 11.2251 34.9267 11.7618 36.4893 11.7618C38.052 11.7618 39.5781 11.2288 40.7866 10.2576C41.1225 9.98738 41.6884 9.66609 42.477 9.66609C43.2438 9.66609 43.9521 9.97643 44.4705 10.5423C44.989 11.1083 45.2372 11.8458 45.1715 12.6198Z" stroke="#6E6E6E" stroke-width="1.09532" stroke-miterlimit="10" stroke-linecap="round" stroke-linejoin="round"/>
<path d="M39.5229 8.45345C40.1509 7.95033 41.2043 7.35156 42.6621 7.35156C44.0853 7.35156 45.3997 7.92916 46.3621 8.97812C47.3238 10.026 47.7864 11.3908 47.6637 12.8213" stroke="white" stroke-width="1.09532" stroke-miterlimit="10" stroke-linecap="round" stroke-linejoin="round"/>
</g>
<defs>
<filter id="filter0_d_712_2234" x="0" y="0" width="72" height="78.6977" filterUnits="userSpaceOnUse" color-interpolation-filters="sRGB">
<feFlood flood-opacity="0" result="BackgroundImageFix"/>
<feColorMatrix in="SourceAlpha" type="matrix" values="0 0 0 0 0 0 0 0 0 0 0 0 0 0 0 0 0 0 127 0" result="hardAlpha"/>
<feOffset dy="6.69767"/>
<feComposite in2="hardAlpha" operator="out"/>
<feColorMatrix type="matrix" values="0 0 0 0 0.85 0 0 0 0 0.719058 0 0 0 0 0.407292 0 0 0 1 0"/>
<feBlend mode="normal" in2="BackgroundImageFix" result="effect1_dropShadow_712_2234"/>
<feBlend mode="normal" in="SourceGraphic" in2="effect1_dropShadow_712_2234" result="shape"/>
</filter>
<filter id="filter1_ddd_712_2234" x="19" y="4" width="35" height="68" filterUnits="userSpaceOnUse" color-interpolation-filters="sRGB">
<feFlood flood-opacity="0" result="BackgroundImageFix"/>
<feColorMatrix in="SourceAlpha" type="matrix" values="0 0 0 0 0 0 0 0 0 0 0 0 0 0 0 0 0 0 127 0" result="hardAlpha"/>
<feOffset dy="1"/>
<feGaussianBlur stdDeviation="0.5"/>
<feColorMatrix type="matrix" values="0 0 0 0 0 0 0 0 0 0 0 0 0 0 0 0 0 0 0.17 0"/>
<feBlend mode="normal" in2="BackgroundImageFix" result="effect1_dropShadow_712_2234"/>
<feColorMatrix in="SourceAlpha" type="matrix" values="0 0 0 0 0 0 0 0 0 0 0 0 0 0 0 0 0 0 127 0" result="hardAlpha"/>
<feOffset dx="1" dy="2"/>
<feGaussianBlur stdDeviation="0.5"/>
<feColorMatrix type="matrix" values="0 0 0 0 0 0 0 0 0 0 0 0 0 0 0 0 0 0 0.1 0"/>
<feBlend mode="normal" in2="effect1_dropShadow_712_2234" result="effect2_dropShadow_712_2234"/>
<feColorMatrix in="SourceAlpha" type="matrix" values="0 0 0 0 0 0 0 0 0 0 0 0 0 0 0 0 0 0 127 0" result="hardAlpha"/>
<feOffset dx="1" dy="3"/>
<feGaussianBlur stdDeviation="0.5"/>
<feColorMatrix type="matrix" values="0 0 0 0 0 0 0 0 0 0 0 0 0 0 0 0 0 0 0.03 0"/>
<feBlend mode="normal" in2="effect2_dropShadow_712_2234" result="effect3_dropShadow_712_2234"/>
<feBlend mode="normal" in="SourceGraphic" in2="effect3_dropShadow_712_2234" result="shape"/>
</filter>
<linearGradient id="paint0_linear_712_2234" x1="36" y1="59.2258" x2="36" y2="84.1395" gradientUnits="userSpaceOnUse">
<stop stop-color="#F4DFAD"/>
<stop offset="0.838542" stop-color="#FFFAF5"/>
<stop offset="1" stop-color="white" stop-opacity="0"/>
</linearGradient>
</defs>
</svg>
