<svg width="58" height="58" viewBox="0 0 58 58" fill="none" xmlns="http://www.w3.org/2000/svg">
<g filter="url(#filter0_d_739_1101)">
<rect x="4" y="2" width="50" height="50" rx="25" fill="#FF7F11"/>
<g filter="url(#filter1_d_739_1101)">
<path d="M39.9604 32.7319C38.1965 31.2408 37.185 29.0615 37.185 26.7526V23.5C37.185 19.3946 34.1353 15.9961 30.185 15.4268V14.1666C30.185 13.5215 29.6622 13 29.0182 13C28.3743 13 27.8516 13.5215 27.8516 14.1666V15.4268C23.9 15.9961 20.8516 19.3946 20.8516 23.5V26.7526C20.8516 29.0615 19.8401 31.2408 18.0655 32.7411C17.6118 33.1297 17.3516 33.6943 17.3516 34.2916C17.3516 35.4176 18.2674 36.3334 19.3932 36.3334H38.6432C39.7692 36.3334 40.685 35.4176 40.685 34.2916C40.685 33.6943 40.4248 33.1297 39.9604 32.7319Z" fill="white"/>
<path d="M29.0183 40.834C31.1312 40.834 32.8987 39.3277 33.3046 37.334H24.7319C25.138 39.3277 26.9055 40.834 29.0183 40.834Z" fill="white"/>
</g>
</g>
<defs>
<filter id="filter0_d_739_1101" x="0" y="0" width="58" height="58" filterUnits="userSpaceOnUse" color-interpolation-filters="sRGB">
<feFlood flood-opacity="0" result="BackgroundImageFix"/>
<feColorMatrix in="SourceAlpha" type="matrix" values="0 0 0 0 0 0 0 0 0 0 0 0 0 0 0 0 0 0 127 0" result="hardAlpha"/>
<feOffset dy="2"/>
<feGaussianBlur stdDeviation="2"/>
<feComposite in2="hardAlpha" operator="out"/>
<feColorMatrix type="matrix" values="0 0 0 0 0 0 0 0 0 0 0 0 0 0 0 0 0 0 0.2 0"/>
<feBlend mode="normal" in2="BackgroundImageFix" result="effect1_dropShadow_739_1101"/>
<feBlend mode="normal" in="SourceGraphic" in2="effect1_dropShadow_739_1101" result="shape"/>
</filter>
<filter id="filter1_d_739_1101" x="16.3516" y="13" width="25.3334" height="29.834" filterUnits="userSpaceOnUse" color-interpolation-filters="sRGB">
<feFlood flood-opacity="0" result="BackgroundImageFix"/>
<feColorMatrix in="SourceAlpha" type="matrix" values="0 0 0 0 0 0 0 0 0 0 0 0 0 0 0 0 0 0 127 0" result="hardAlpha"/>
<feOffset dy="1"/>
<feGaussianBlur stdDeviation="0.5"/>
<feComposite in2="hardAlpha" operator="out"/>
<feColorMatrix type="matrix" values="0 0 0 0 0 0 0 0 0 0 0 0 0 0 0 0 0 0 0.8 0"/>
<feBlend mode="normal" in2="BackgroundImageFix" result="effect1_dropShadow_739_1101"/>
<feBlend mode="normal" in="SourceGraphic" in2="effect1_dropShadow_739_1101" result="shape"/>
</filter>
</defs>
</svg>
