<svg width="28" height="28" viewBox="0 0 28 28" fill="none" xmlns="http://www.w3.org/2000/svg">
<g clip-path="url(#clip0_739_1115)">
<path d="M14.0182 28C11.6055 28 9.64316 26.0377 9.64316 23.625C9.64316 23.142 10.0352 22.75 10.5182 22.75C11.0012 22.75 11.3932 23.142 11.3932 23.625C11.3932 25.0729 12.5704 26.25 14.0182 26.25C15.4661 26.25 16.6432 25.0729 16.6432 23.625C16.6432 23.142 17.0352 22.75 17.5182 22.75C18.0012 22.75 18.3932 23.142 18.3932 23.625C18.3932 26.0377 16.4308 28 14.0182 28Z" fill="#333333"/>
<path d="M23.6432 24.5H4.39316C3.26736 24.5 2.35156 23.5842 2.35156 22.4584C2.35156 21.8609 2.61176 21.2952 3.06549 20.9066C4.84006 19.4074 5.85156 17.2283 5.85156 14.9194V11.6666C5.85156 7.16342 9.51498 3.5 14.0182 3.5C18.5215 3.5 22.185 7.16342 22.185 11.6666V14.9194C22.185 17.2283 23.1965 19.4074 24.9593 20.8985C25.4248 21.2952 25.685 21.8609 25.685 22.4584C25.685 23.5842 24.7692 24.5 23.6432 24.5ZM14.0182 5.25C10.4797 5.25 7.60156 8.12814 7.60156 11.6666V14.9194C7.60156 17.7437 6.36383 20.4108 4.20667 22.2343C4.16565 22.2693 4.10156 22.3418 4.10156 22.4584C4.10156 22.6169 4.23465 22.75 4.39316 22.75H23.6432C23.8019 22.75 23.935 22.6169 23.935 22.4584C23.935 22.3418 23.8707 22.2693 23.8322 22.2367C21.6727 20.4108 20.435 17.7437 20.435 14.9194V11.6666C20.435 8.12814 17.5568 5.25 14.0182 5.25Z" fill="#333333"/>
<path d="M14.0182 5.25C13.5352 5.25 13.1432 4.858 13.1432 4.375V0.875C13.1432 0.391998 13.5352 0 14.0182 0C14.5012 0 14.8932 0.391998 14.8932 0.875V4.375C14.8932 4.858 14.5012 5.25 14.0182 5.25Z" fill="#333333"/>
</g>
<defs>
<clipPath id="clip0_739_1115">
<rect width="28" height="28" fill="white"/>
</clipPath>
</defs>
</svg>
