<svg width="25" height="24" viewBox="0 0 25 24" fill="none" xmlns="http://www.w3.org/2000/svg">
<g clip-path="url(#clip0_369_417)">
<path d="M12.5 24.0031C12.0245 24.0031 11.5771 23.8186 11.2404 23.483L1.00961 13.2526C0.317362 12.557 0.317362 11.4256 1.00809 10.7315L4.75584 6.9845C4.98724 6.75312 5.34236 6.698 5.63334 6.8499C5.92324 7.0014 6.08146 7.32387 6.02451 7.646C5.98626 7.86052 5.96899 8.03265 5.96899 8.18787C5.96899 9.8285 7.30436 11.1913 8.94574 11.1913C10.5886 11.1913 11.7882 9.82852 11.7882 8.1879C11.7882 6.54502 10.5886 5.20927 8.94574 5.20927C8.79199 5.20927 8.62066 5.22687 8.40614 5.26477C8.08101 5.32477 7.76151 5.16352 7.61001 4.87362C7.45851 4.583 7.51326 4.2275 7.74464 3.99613L11.2389 0.501125C11.9158 -0.17275 13.0861 -0.17125 13.76 0.499625L16.3182 3.05937C16.8522 1.39962 18.4107 0.194727 20.2449 0.194727C22.5189 0.194727 24.3692 2.04573 24.3692 4.32045C24.3692 6.15458 23.165 7.71308 21.5045 8.24633L23.9896 10.73C24.6834 11.4256 24.6834 12.557 23.9904 13.2519L13.7611 23.4815C13.4229 23.8186 12.9755 24.0031 12.5 24.0031L12.5 24.0031ZM4.59914 9.26225L2.07011 11.7905C1.96099 11.9004 1.96099 12.0819 2.07159 12.1933L12.299 22.421C12.4426 22.5631 12.5555 22.5647 12.7017 22.4195L22.9287 12.1918C23.0386 12.0811 23.0386 11.9011 22.928 11.7898L19.3209 8.18492C19.0951 7.95917 19.0366 7.61492 19.1757 7.32805C19.3148 7.04117 19.6175 6.8709 19.9381 6.90992L20.0525 6.92452C20.1155 6.93317 20.1785 6.94367 20.2445 6.94367C21.6916 6.94367 22.8688 5.76727 22.8688 4.32092C22.8688 2.87302 21.6916 1.69517 20.2445 1.69517C18.7981 1.69517 17.621 2.87305 17.621 4.32092C17.621 4.38092 17.6304 4.43942 17.6386 4.49827L17.6548 4.63215C17.6713 4.78651 17.6395 4.9422 17.5638 5.07774C17.4882 5.21328 17.3723 5.322 17.2322 5.3889C16.9472 5.52502 16.6037 5.46652 16.379 5.24225L12.7007 1.562C12.557 1.41988 12.4442 1.41835 12.2979 1.5635L10.0216 3.83975C11.9735 4.32312 13.2883 6.089 13.2883 8.18825C13.2883 10.6565 11.4151 12.6912 8.94538 12.6912C6.84689 12.6909 5.08174 11.2126 4.59914 9.26225Z" fill="white"/>
</g>
<defs>
<clipPath id="clip0_369_417">
<rect width="24" height="24" fill="white" transform="translate(0.5)"/>
</clipPath>
</defs>
</svg>
