<svg width="25" height="24" viewBox="0 0 25 24" fill="none" xmlns="http://www.w3.org/2000/svg">
<path d="M16.5 2H8.5C4.5 2 2.5 4 2.5 8V21C2.5 21.55 2.95 22 3.5 22H16.5C20.5 22 22.5 20 22.5 16V8C22.5 4 20.5 2 16.5 2Z" stroke="white" stroke-width="1.5" stroke-linecap="round" stroke-linejoin="round"/>
<path d="M13.41 7.8382L8.22004 13.0282C8.02004 13.2282 7.83004 13.6182 7.79004 13.8982L7.51004 15.8782C7.41004 16.5982 7.91004 17.0982 8.63004 16.9982L10.61 16.7182C10.89 16.6782 11.28 16.4882 11.48 16.2882L16.67 11.0982C17.56 10.2082 17.99 9.1682 16.67 7.8482C15.35 6.5182 14.31 6.9382 13.41 7.8382Z" stroke="white" stroke-width="1.5" stroke-miterlimit="10" stroke-linecap="round" stroke-linejoin="round"/>
<path d="M12.6699 8.57812C13.1099 10.1481 14.3399 11.3881 15.9199 11.8281" stroke="white" stroke-width="1.5" stroke-miterlimit="10" stroke-linecap="round" stroke-linejoin="round"/>
</svg>
