<svg width="52" height="49" viewBox="0 0 52 49" fill="none" xmlns="http://www.w3.org/2000/svg">
<g filter="url(#filter0_d_355_398)">
<rect x="2.60608" width="46.7878" height="44.8598" rx="22.4299" fill="url(#paint0_linear_355_398)"/>
<path fill-rule="evenodd" clip-rule="evenodd" d="M26.8999 12.1146C26.8999 11.6177 26.4971 11.2148 26.0001 11.2148C25.5032 11.2148 25.1004 11.6177 25.1004 12.1146V16.3909C25.1004 19.2496 22.783 21.567 19.9243 21.567H15.166C14.6896 21.567 14.3033 21.9533 14.3033 22.4297C14.3033 22.9062 14.6896 23.2924 15.166 23.2924H19.9242C22.7829 23.2924 25.1004 25.6098 25.1004 28.4686V32.745C25.1004 33.2419 25.5032 33.6448 26.0001 33.6448C26.4971 33.6448 26.8999 33.2419 26.8999 32.745V28.4686C26.8999 25.6098 29.2174 23.2924 32.0761 23.2924H36.8346C37.311 23.2924 37.6973 22.9062 37.6973 22.4297C37.6973 21.9533 37.311 21.567 36.8346 21.567H32.076C29.2173 21.567 26.8999 19.2496 26.8999 16.3909V12.1146Z" fill="#D9D9D9"/>
</g>
<defs>
<filter id="filter0_d_355_398" x="0.606079" y="0" width="50.7878" height="48.8594" filterUnits="userSpaceOnUse" color-interpolation-filters="sRGB">
<feFlood flood-opacity="0" result="BackgroundImageFix"/>
<feColorMatrix in="SourceAlpha" type="matrix" values="0 0 0 0 0 0 0 0 0 0 0 0 0 0 0 0 0 0 127 0" result="hardAlpha"/>
<feOffset dy="2"/>
<feGaussianBlur stdDeviation="1"/>
<feComposite in2="hardAlpha" operator="out"/>
<feColorMatrix type="matrix" values="0 0 0 0 0.801346 0 0 0 0 0.393714 0 0 0 0 0.0434062 0 0 0 1 0"/>
<feBlend mode="normal" in2="BackgroundImageFix" result="effect1_dropShadow_355_398"/>
<feBlend mode="normal" in="SourceGraphic" in2="effect1_dropShadow_355_398" result="shape"/>
</filter>
<linearGradient id="paint0_linear_355_398" x1="26" y1="36.9008" x2="26" y2="44.8598" gradientUnits="userSpaceOnUse">
<stop stop-color="#FF7F11"/>
<stop offset="0.838542" stop-color="#FFFAF5"/>
<stop offset="1" stop-color="white" stop-opacity="0"/>
</linearGradient>
</defs>
</svg>
